<svg xmlns="http://www.w3.org/2000/svg" viewBox="0 0 24 24" width="200" height="200">
    <path fill="currentColor" d="M12 0a12 12 0 0 0-12 12c0 5.302 3.438 9.8 8.207 11.385.6.111.793-.261.793-.578 0-.286-.012-1.24-.018-2.25-3.338.723-4.042-1.611-4.042-1.611-.546-1.385-1.333-1.754-1.333-1.754-1.088-.742.083-.727.083-.727 1.205.084 1.838 1.234 1.838 1.234 1.07 1.837 2.807 1.305 3.492.998.109-.773.417-1.305.76-1.605-2.665-.301-5.467-1.332-5.467-5.93 0-1.31.465-2.384 1.235-3.224-.124-.302-.536-1.526.117-3.176 0 0 1.007-.322 3.3 1.23a11.525 11.525 0 0 1 3-.404c1.015 0 2.035.136 3 .404 2.291-1.552 3.296-1.23 3.296-1.23.656 1.65.244 2.874.12 3.176.77.84 1.232 1.914 1.232 3.224 0 4.61-2.808 5.624-5.478 5.92.43.371.818 1.102.818 2.222 0 1.607-.015 2.896-.015 3.289 0 .322.191.695.8.577C20.567 21.797 24 17.3 24 12A12 12 0 0 0 12 0z"/>
</svg>
